<svg id="Ebene_1" data-name="Ebene 1" xmlns="http://www.w3.org/2000/svg" viewBox="0 0 240 240"><defs><style>.cls-1{fill:#f86f41;}</style></defs><path class="cls-1" d="M120,40.92A79.08,79.08,0,1,0,199.08,120,79.18,79.18,0,0,0,120,40.92ZM92.78,186.72V158.4a2.39,2.39,0,1,0-4.78,0v26.16a72.66,72.66,0,0,1-12.78-8.14V150.24c.08-1.2,1.12-11.57,13-16.45a1,1,0,0,0,.23-.11l22.27-11.19a3.81,3.81,0,0,0,1.37-5.65A34,34,0,0,1,106.24,99c0-10,6.36-17.75,14.48-17.75,7.83,0,14.19,8.28,14.19,18.46,0,4.34-3.71,13.45-6,18.17a3.81,3.81,0,0,0-.18,2.94,3.76,3.76,0,0,0,2,2.2l22.43,10.71.18.08c12.14,5,12.39,15.88,12.39,16.34v25.61a72.24,72.24,0,0,1-13.45,8.72v-26a2.39,2.39,0,1,0-4.77,0v28.24a71.84,71.84,0,0,1-54.65.08Zm81-18.79V150.18c0-.68,0-16.71-17.3-23.85L138,117.49C140,112.78,143,105,143,99.68c0-14.65-10-26.57-22.3-26.57-12.66,0-22.58,11.36-22.58,25.86A41.69,41.69,0,0,0,103,117.34l-17.92,9c-17.13,7.1-17.9,23-17.93,23.62,0,.05,0,.11,0,.16v18.76a72.08,72.08,0,1,1,106.67-1Z"/></svg>